<svg viewBox="-51 0 512 512.00037" width="56.267" height="56.087" xmlns="http://www.w3.org/2000/svg"><path d="m162.132812 162.132812c-4.710937 0-8.53125 3.820313-8.53125 8.535157v8.53125c0 4.714843 3.820313 8.535156 8.53125 8.535156 4.714844 0 8.535157-3.820313 8.535157-8.535156v-8.53125c0-4.714844-3.820313-8.535157-8.535157-8.535157zm0 0"/><path d="m247.46875 187.734375c4.710938 0 8.53125-3.820313 8.53125-8.535156v-8.53125c0-4.714844-3.820312-8.535157-8.53125-8.535157-4.714844 0-8.535156 3.820313-8.535156 8.535157v8.53125c0 4.714843 3.820312 8.535156 8.535156 8.535156zm0 0"/><path d="m204.800781 204.800781h8.53125c4.714844 0 8.535157-3.820312 8.535157-8.535156 0-4.710937-3.820313-8.53125-8.535157-8.53125v-8.535156c0-4.710938-3.820312-8.53125-8.53125-8.53125-4.714843 0-8.535156 3.820312-8.535156 8.53125v17.066406c0 4.714844 3.820313 8.535156 8.535156 8.535156zm0 0"/><path d="m225.671875 238.082031c4.234375-2.074219 5.980469-7.1875 3.910156-11.417969-2.074219-4.234374-7.1875-5.984374-11.417969-3.910156-.042968.019532-.082031.039063-.121093.058594-8.34375 4.152344-18.152344 4.152344-26.496094 0-4.21875-2.101562-9.34375-.390625-11.445313 3.828125-2.105468 4.21875-.390624 9.34375 3.824219 11.449219 13.152344 6.527344 28.597657 6.527344 41.746094 0zm0 0"/><path d="m93.867188 392.535156h17.066406v17.066406h-17.066406zm0 0"/><path d="m298.667969 392.535156h17.066406v17.066406h-17.066406zm0 0"/><path d="m409.601562 384c-.046874-42.394531-34.40625-76.753906-76.800781-76.800781h-76.800781v-32.359375c21.507812-14.035156 36.332031-36.257813 41.039062-61.507813h14.429688c16.492188 0 29.863281-13.371093 29.863281-29.867187 0-16.492188-13.371093-29.863282-29.863281-29.863282h21.332031c14.136719 0 25.601563-11.464843 25.601563-25.601562 0-14.140625-11.464844-25.601562-25.601563-25.601562h-34.132812v-25.597657c-.046875-42.398437-34.40625-76.753906-76.800781-76.800781h-34.132813c-42.398437.046875-76.753906 34.402344-76.800781 76.800781v25.597657h-34.132813c-14.140625 0-25.601562 11.464843-25.601562 25.601562s11.460937 25.601562 25.601562 25.601562h21.332031c-16.492187 0-29.867187 13.371094-29.867187 29.867188 0 16.492188 13.371094 29.863281 29.867187 29.863281h14.429688c4.703125 25.25 19.53125 47.472657 41.039062 61.507813v32.359375h-76.800781c-42.398437.046875-76.753906 34.40625-76.800781 76.800781v128h409.601562zm-341.335937 110.933594h-51.199219v-51.199219h51.199219zm0-68.265625h-51.199219v-42.667969c.058594-29.660156 21.847656-54.792969 51.199219-59.050781zm204.800781-102.402344v68.269531h-59.734375v-36.132812l29.742188 17.84375c4.039062 2.429687 9.28125 1.121094 11.707031-2.917969.796875-1.328125 1.21875-2.847656 1.21875-4.394531v-42.667969zm-102.398437-13.363281v-27.304688c21.925781 8.691406 46.339843 8.691406 68.265625 0v27.304688l-34.132813 20.480468zm17.550781 30.429687-17.550781 10.53125v-21.058593zm50.714844-10.527343v21.058593l-17.554688-10.53125zm85.332031-147.335938c0 7.066406-5.730469 12.796875-12.800781 12.796875h-12.796875v-25.597656h12.796875c7.070312 0 12.800781 5.730469 12.800781 12.800781zm-136.53125-166.402344h34.132813c29.667968.035156 54.8125 21.835938 59.050781 51.199219h-152.234375c4.238281-29.363281 29.382812-51.164063 59.050781-51.199219zm-59.734375 68.265625h153.601562v17.066407h-153.601562zm-17.066406 110.933594h-12.800782c-7.070312 0-12.800781-5.730469-12.800781-12.796875 0-7.070312 5.730469-12.800781 12.800781-12.800781h12.800782zm-34.132813-59.730469c-4.714843 0-8.535156-3.820312-8.535156-8.535156 0-4.710938 3.820313-8.535156 8.535156-8.535156h256c4.710938 0 8.53125 3.824218 8.53125 8.535156 0 4.714844-3.820312 8.535156-8.53125 8.535156zm51.199219 59.730469v-42.664063h153.601562v42.664063c0 42.417969-34.386718 76.800781-76.800781 76.800781-42.414062 0-76.800781-34.382812-76.800781-76.800781zm8.535156 128h17.066406v42.667969c0 4.710937 3.820313 8.53125 8.535157 8.53125 1.546875 0 3.066406-.421875 4.390625-1.21875l29.738281-17.84375v36.132812h-59.730469zm0 85.335937h136.53125c.035156 6.007813 1.675782 11.898438 4.746094 17.066407h-146.023438c3.070313-5.167969 4.710938-11.058594 4.746094-17.066407zm-34.136718 85.332032h-17.066407v-55.945313c5.167969 3.070313 11.058594 4.710938 17.066407 4.746094zm0-68.265625c-9.421876 0-17.066407-7.640625-17.066407-17.066407v-85.335937h34.136719v85.335937c0 9.425782-7.644531 17.066407-17.070312 17.066407zm187.734374 68.265625h-170.664062v-51.199219h170.664062zm34.132813 0h-17.066406v-51.199219c6.011719-.035156 11.902343-1.675781 17.066406-4.746094zm0-85.332032c0 9.425782-7.640625 17.066407-17.066406 17.066407s-17.066407-7.640625-17.066407-17.066407v-85.335937h34.132813zm68.269531 85.332032h-51.203125v-51.199219h51.203125zm0-68.265625h-51.203125v-101.71875c29.351563 4.257812 51.144531 29.390625 51.203125 59.050781zm0 0"/></svg>
